<svg width="177" height="54" viewBox="0 0 671 142" fill="none" xmlns="http://www.w3.org/2000/svg">
<g clip-path="url(#clip0_58_2)">
<path d="M178.871 47.0767C185.167 47.0767 190.69 48.3072 195.44 50.7682C200.248 53.2293 203.939 56.7491 206.515 61.3278C209.147 65.8492 210.464 71.1147 210.464 77.1242C210.464 83.1337 209.147 88.3992 206.515 92.9206C203.939 97.3848 200.248 100.847 195.44 103.308C190.69 105.769 185.167 107 178.871 107H157.924V47.0767H178.871ZM178.442 96.7838C184.737 96.7838 189.602 95.0668 193.036 91.6328C196.47 88.1988 198.187 83.3626 198.187 77.1242C198.187 70.8858 196.47 66.0209 193.036 62.5297C189.602 58.9812 184.737 57.207 178.442 57.207H169.943V96.7838H178.442ZM263.673 82.1894C263.673 83.9064 263.559 85.4516 263.33 86.8252H228.561C228.847 90.2592 230.049 92.9492 232.166 94.8951C234.284 96.8411 236.888 97.814 239.979 97.814C244.443 97.814 247.619 95.8967 249.508 92.0621H262.472C261.098 96.6408 258.465 100.418 254.573 103.394C250.681 106.313 245.902 107.773 240.236 107.773C235.658 107.773 231.537 106.771 227.874 104.768C224.268 102.707 221.435 99.8172 219.375 96.097C217.372 92.3769 216.37 88.0844 216.37 83.2195C216.37 78.2975 217.372 73.9764 219.375 70.2562C221.378 66.536 224.182 63.6744 227.788 61.6712C231.394 59.668 235.543 58.6664 240.236 58.6664C244.758 58.6664 248.793 59.6394 252.341 61.5853C255.947 63.5313 258.723 66.3071 260.669 69.9128C262.672 73.4613 263.673 77.5535 263.673 82.1894ZM251.225 78.7553C251.168 75.6647 250.052 73.2037 247.877 71.3722C245.702 69.4835 243.041 68.5392 239.893 68.5392C236.917 68.5392 234.399 69.4549 232.338 71.2864C230.335 73.0606 229.104 75.5503 228.647 78.7553H251.225ZM309.448 47.0767V56.7777H284.465V72.1449H303.61V81.6742H284.465V107H272.446V47.0767H309.448ZM324.066 53.773C321.948 53.773 320.174 53.1148 318.743 51.7985C317.369 50.4248 316.682 48.7365 316.682 46.7333C316.682 44.7301 317.369 43.0704 318.743 41.754C320.174 40.3804 321.948 39.6936 324.066 39.6936C326.183 39.6936 327.929 40.3804 329.302 41.754C330.733 43.0704 331.449 44.7301 331.449 46.7333C331.449 48.7365 330.733 50.4248 329.302 51.7985C327.929 53.1148 326.183 53.773 324.066 53.773ZM329.989 59.4391V107H317.97V59.4391H329.989ZM385.562 65.6203C385.562 68.8254 384.789 71.8301 383.244 74.6346C381.756 77.439 379.38 79.6997 376.118 81.4167C372.913 83.1337 368.85 83.9922 363.927 83.9922H353.883V107H341.864V47.0767H363.927C368.563 47.0767 372.512 47.878 375.775 49.4805C379.037 51.083 381.469 53.2865 383.072 56.0909C384.732 58.8954 385.562 62.0718 385.562 65.6203ZM363.412 74.2911C366.732 74.2911 369.193 73.5471 370.795 72.0591C372.398 70.5137 373.199 68.3675 373.199 65.6203C373.199 59.7825 369.937 56.8636 363.412 56.8636H353.883V74.2911H363.412ZM438.995 59.4391V107H426.89V100.991C425.344 103.051 423.313 104.682 420.794 105.884C418.333 107.029 415.643 107.601 412.724 107.601C409.004 107.601 405.713 106.828 402.852 105.283C399.99 103.68 397.729 101.363 396.07 98.3291C394.467 95.2386 393.666 91.5756 393.666 87.3403V59.4391H405.685V85.6233C405.685 89.4007 406.629 92.3196 408.518 94.3801C410.406 96.3832 412.982 97.3848 416.244 97.3848C419.564 97.3848 422.168 96.3832 424.057 94.3801C425.945 92.3196 426.89 89.4007 426.89 85.6233V59.4391H438.995ZM462.872 43.471V107H450.853V43.471H462.872ZM492.947 107.773C489.055 107.773 485.564 107.086 482.474 105.712C479.383 104.281 476.922 102.364 475.09 99.9603C473.316 97.5565 472.343 94.8951 472.172 91.9762H484.276C484.505 93.8077 485.392 95.3244 486.938 96.5263C488.54 97.7282 490.515 98.3291 492.861 98.3291C495.151 98.3291 496.925 97.8713 498.184 96.9555C499.5 96.0398 500.159 94.8665 500.159 93.4357C500.159 91.8904 499.357 90.7457 497.755 90.0017C496.21 89.2004 493.72 88.3419 490.286 87.4262C486.737 86.5677 483.819 85.6806 481.529 84.7649C479.297 83.8491 477.351 82.4469 475.691 80.5582C474.089 78.6695 473.288 76.1226 473.288 72.9175C473.288 70.2848 474.032 67.881 475.52 65.7061C477.065 63.5313 479.24 61.8143 482.044 60.5552C484.906 59.296 488.254 58.6664 492.089 58.6664C497.755 58.6664 502.276 60.0973 505.653 62.9589C509.03 65.7634 510.89 69.5694 511.233 74.377H499.729C499.558 72.4883 498.756 71.0002 497.326 69.9128C495.952 68.7681 494.092 68.1958 491.745 68.1958C489.57 68.1958 487.882 68.5964 486.68 69.3977C485.536 70.199 484.963 71.315 484.963 72.7458C484.963 74.3484 485.764 75.5789 487.367 76.4374C488.97 77.2387 491.459 78.0685 494.836 78.927C498.27 79.7855 501.103 80.6727 503.335 81.5884C505.567 82.5041 507.485 83.935 509.087 85.8809C510.747 87.7696 511.605 90.2879 511.663 93.4357C511.663 96.1829 510.89 98.6439 509.345 100.819C507.857 102.994 505.682 104.711 502.82 105.97C500.016 107.172 496.725 107.773 492.947 107.773ZM565.741 82.1894C565.741 83.9064 565.627 85.4516 565.398 86.8252H530.629C530.915 90.2592 532.117 92.9492 534.234 94.8951C536.352 96.8411 538.956 97.814 542.047 97.814C546.511 97.814 549.687 95.8967 551.576 92.0621H564.539C563.166 96.6408 560.533 100.418 556.641 103.394C552.749 106.313 547.97 107.773 542.304 107.773C537.726 107.773 533.605 106.771 529.942 104.768C526.336 102.707 523.503 99.8172 521.443 96.097C519.44 92.3769 518.438 88.0844 518.438 83.2195C518.438 78.2975 519.44 73.9764 521.443 70.2562C523.446 66.536 526.25 63.6744 529.856 61.6712C533.462 59.668 537.611 58.6664 542.304 58.6664C546.826 58.6664 550.861 59.6394 554.409 61.5853C558.015 63.5313 560.791 66.3071 562.737 69.9128C564.74 73.4613 565.741 77.5535 565.741 82.1894ZM553.293 78.7553C553.236 75.6647 552.12 73.2037 549.945 71.3722C547.77 69.4835 545.109 68.5392 541.961 68.5392C538.985 68.5392 536.466 69.4549 534.406 71.2864C532.403 73.0606 531.172 75.5503 530.715 78.7553H553.293ZM610.399 107L597.436 86.8252L585.675 107H572.11L590.997 76.7808L571.853 47.0767H585.675L598.638 67.1656L610.314 47.0767H623.878L605.077 77.2101L624.221 107H610.399Z" fill="#1A1A1A"/>
<path d="M70.8326 141.665C109.952 141.665 141.665 109.952 141.665 70.8326C141.665 31.7129 109.952 0 70.8326 0C31.7129 0 0 31.7129 0 70.8326C0 109.952 31.7129 141.665 70.8326 141.665Z" fill="#F15A01"/>
<path fill-rule="evenodd" clip-rule="evenodd" d="M119.761 49.6657L123.929 52.6724L124.605 53.1601L124.697 51.5742L124.834 49.2347L125.266 41.7908L126.085 27.7144L115.266 33.0702L104.291 38.5038L109.062 41.9454L92.45 65.6574L86.4116 57.0337C81.3082 49.7454 74.0938 44.1659 65.6545 41.7246C58.3374 39.6088 48.1614 40.3105 40.0916 40.3105L15.6058 40.3595L15.5866 64.802L23.3665 52.8308L39.5444 52.8577C45.3207 52.8865 52.6062 52.4468 58.1626 53.0372C68.449 54.1307 76.1751 61.5016 78.795 70.1867C83.5556 85.9672 71.4913 101.157 55.7866 101.358C53.7121 101.385 39.89 101.185 39.4234 101.419C39.2766 101.493 31.2961 113.349 31.2682 113.897C40.1838 113.722 46.658 113.979 55.6004 113.946C68.6074 113.898 80.3166 106.946 86.8849 96.4878L119.761 49.6657ZM102.294 81.3707L94.2462 92.884L108.43 113.949H124.527L102.295 81.3707H102.294ZM17.1553 86.9732C16.2164 88.5006 15.5655 88.7713 15.5818 90.9937C15.6356 98.5662 15.6385 106.207 15.5818 113.779C16.1281 113.53 19.1281 108.434 19.6868 107.573L32.1236 88.7694L54.506 88.7713C61.7502 88.778 67.5466 84.0049 67.2078 76.5812C66.841 68.546 60.6049 65.4904 53.4106 65.4913L30.843 65.4884L17.1553 86.9742V86.9732Z" fill="white"/>
<mask id="mask0_58_2" style="mask-type:luminance" maskUnits="userSpaceOnUse" x="15" y="27" width="112" height="87">
<path d="M119.761 49.6657L123.929 52.6724L124.605 53.1601L124.697 51.5742L124.834 49.2347L125.266 41.7908L126.085 27.7144L115.266 33.0702L104.291 38.5038L109.062 41.9454L92.45 65.6574L86.4116 57.0337C81.3082 49.7454 74.0938 44.1659 65.6545 41.7246C58.3374 39.6088 48.1614 40.3105 40.0916 40.3105L15.6058 40.3595L15.5866 64.802L23.3665 52.8308L39.5444 52.8577C45.3207 52.8865 52.6062 52.4468 58.1626 53.0372C68.449 54.1307 76.1751 61.5016 78.795 70.1867C83.5556 85.9672 71.4913 101.157 55.7866 101.358C53.7121 101.385 39.89 101.185 39.4234 101.419C39.2766 101.493 31.2961 113.349 31.2682 113.897C40.1838 113.722 46.658 113.979 55.6004 113.946C68.6074 113.898 80.3166 106.946 86.8849 96.4878L119.761 49.6657ZM102.294 81.3707L94.2462 92.884L108.43 113.949H124.527L102.295 81.3707H102.294ZM17.1553 86.9732C16.2164 88.5006 15.5655 88.7713 15.5818 90.9937C15.6356 98.5662 15.6385 106.207 15.5818 113.779C16.1281 113.53 19.1281 108.434 19.6868 107.573L32.1236 88.7694L54.506 88.7713C61.7502 88.778 67.5466 84.0049 67.2078 76.5812C66.841 68.546 60.6049 65.4904 53.4106 65.4913L30.843 65.4884L17.1553 86.9742V86.9732Z" fill="white"/>
</mask>
<g mask="url(#mask0_58_2)">
<path fill-rule="evenodd" clip-rule="evenodd" d="M4.46606 27.0923H125.109C106.855 77.1649 60.963 103.054 4.46606 119.665V27.0923Z" fill="white" fill-opacity="0.2"/>
</g>
</g>
<defs>
<clipPath id="clip0_58_2">
<rect width="671" height="142" fill="white"/>
</clipPath>
</defs>
</svg>
